<svg height="512pt" viewBox="-22 0 512 512" width="512pt" xmlns="http://www.w3.org/2000/svg"><path d="m424.757812 130.175781c-4.304687 0-7.792968-3.488281-7.792968-7.789062v-60.417969c0-4.300781 3.488281-7.789062 7.792968-7.789062 4.304688 0 7.789063 3.488281 7.789063 7.789062v60.417969c0 4.300781-3.488281 7.789062-7.789063 7.789062zm0 0" fill="#c4cccf"/><g fill-rule="evenodd"><path d="m422.972656 512h-377.917968c-38.792969 0-45.789063-19.5-44.9960942-40.929688 5.4414062-48.59375 33.1093752-121.191406 108.8476562-153.507812l124.597656-30.039062 125.617188 30.152343c75.945312 32.175781 103.375 104.71875 108.816406 153.394531.824219 21.429688-6.175781 40.929688-44.964844 40.929688zm0 0" fill="#546e7a"/><path d="m372.46875 158.546875-133.761719-18.03125-142.746093 18.058594v47.804687c0 68.648438 68.769531 124.941406 138.269531 125.382813 27.925781.203125 55.945312-9.046875 79.335937-24.679688 34.398438-22.949219 58.902344-59.6875 58.902344-100.703125zm0 0" fill="#ffdda6"/><path d="m359.121094 317.679688c.875 10.976562-.675782 21.664062-4.1875 31.703124 58.023437 35.890626 80.1875 97.921876 85.015625 141.101563.292969 7.289063-.347657 14.34375-2.808594 20.492187 26.378906-4.332031 31.5-21.398437 30.796875-39.902343-5.445312-48.679688-32.875-121.222657-108.816406-153.394531zm0 0" fill="#35505c"/><path d="m235.546875 363.171875 35.511719 53.042969c48.976562-8.078125 91.839844-50.175782 88.0625-98.535156-12.792969-5.445313-26.992188-9.71875-42.683594-12.527344-.9375.644531-1.90625 1.316406-2.871094 1.929687-13.234375 8.871094-27.957031 15.664063-43.328125 19.847657zm0 0" fill="#eceff1"/><path d="m196.960938 416.214844 38.585937-53.042969-36.476563-36.269531c-16.804687-4.566406-32.847656-12.148438-47.046874-22.074219-15.867188 2.871094-30.214844 7.203125-43.125 12.734375-3.832032 48.417969 39.027343 90.542969 88.0625 98.652344zm0 0" fill="#eceff1"/><path d="m199.070312 326.902344c-15.839843-4.304688-30.972656-11.269532-44.527343-20.347656-.851563-.554688-1.699219-1.140626-2.519531-1.726563-11.652344 2.109375-22.484376 5.007813-32.523438 8.578125.292969.46875.613281.90625.90625 1.375 14.988281 21.898438 52.84375 44.117188 95.761719 48.390625zm0 0" fill="#c4cccf"/><path d="m313.566406 307.082031c-13.234375 8.871094-27.957031 15.664063-43.328125 19.847657l-18.382812 36.242187c25.761719-2.226563 51.671875-14.257813 69.5-23.800781 5.238281-2.808594 6.089843-2.839844 11.796875-1.402344 8.519531 3.597656 14.433594 6.878906 21.78125 11.414062 3.511718-10.039062 5.066406-20.726562 4.1875-31.703124-2.664063-1.140626-5.417969-2.226563-8.226563-3.277344-10.597656-3.894532-22.046875-7.027344-34.457031-9.253906-.9375.648437-1.902344 1.320312-2.871094 1.933593zm0 0" fill="#c4cccf"/><path d="m251.855469 363.171875-16.308594-9.574219-19.382813 9.574219-19.203124 53.042969c26.027343 4.273437 48.128906 3.660156 74.097656 0zm0 0" fill="#8ebfe8"/><path d="m212.476562 329.859375c-4.507812-.792969-8.988281-1.757813-13.40625-2.957031l17.097657 36.269531h35.6875l18.382812-36.242187c-11.769531 3.21875-23.886719 4.917968-36.007812 4.832031-7.289063-.03125-14.550781-.703125-21.753907-1.902344zm0 0" fill="#519ad6"/></g><path d="m166.070312 216.449219c-1.742187 0-3.496093-.582031-4.949218-1.773438-3.320313-2.734375-3.796875-7.644531-1.058594-10.960937 4.304688-5.226563 12.464844-8.433594 22.382812-8.796875 11.179688-.421875 21.070313 2.714843 26.472657 8.367187 2.976562 3.109375 2.863281 8.035156-.25 11.007813-3.109375 2.972656-8.042969 2.859375-11.015625-.25-1.835938-1.921875-7.570313-3.824219-14.632813-3.5625-6.269531.230469-10.03125 2.046875-10.929687 3.132812-1.539063 1.871094-3.769532 2.835938-6.019532 2.835938zm0 0" fill="#37474f"/><path d="m269.355469 216.449219c-1.742188 0-3.496094-.582031-4.949219-1.773438-3.320312-2.734375-3.796875-7.644531-1.058594-10.960937 4.304688-5.226563 12.464844-8.433594 22.382813-8.796875 11.175781-.421875 21.070312 2.714843 26.472656 8.367187 2.976563 3.109375 2.863281 8.035156-.25 11.007813-3.109375 2.972656-8.039063 2.859375-11.015625-.25-1.835938-1.921875-7.570312-3.824219-14.632812-3.5625-6.269532.230469-10.03125 2.046875-10.929688 3.132812-1.542969 1.871094-3.769531 2.835938-6.019531 2.835938zm0 0" fill="#37474f"/><path d="m424.757812 118.265625c-9.164062 0-16.628906 7.496094-16.628906 16.628906v26.113281c0 9.132813 7.464844 16.597657 16.628906 16.597657 9.132813 0 16.597657-7.464844 16.597657-16.597657v-26.113281c0-9.132812-7.464844-16.628906-16.597657-16.628906zm0 0" fill="#ffd54f" fill-rule="evenodd"/><path d="m327.792969 158.546875v47.835937c0 41.011719-24.53125 77.75-58.902344 100.699219-16.980469 11.328125-36.390625 19.320313-56.414063 22.777344 7.203126 1.199219 14.464844 1.871094 21.753907 1.902344 27.929687.203125 55.945312-9.046875 79.335937-24.679688 34.398438-22.949219 58.902344-59.6875 58.902344-100.699219v-47.835937c-15.222656 0-30.125 0-44.675781 0zm0 0" fill="#fcc368" fill-rule="evenodd"/><path d="m416.414062 120.519531c4.976563 2.898438 8.34375 8.257813 8.34375 14.375v26.113281c0 6.117188-3.367187 11.503907-8.316406 14.371094 2.460938 1.433594 5.300782 2.226563 8.316406 2.226563 9.132813 0 16.597657-7.464844 16.597657-16.597657v-26.113281c0-9.132812-7.464844-16.628906-16.597657-16.628906-3.046874 0-5.886718.820313-8.34375 2.253906zm0 0" fill="#e6a235" fill-rule="evenodd"/><path d="m95.960938 158.578125c84.257812-.117187 172.082031-.03125 276.511718-.03125v-77.808594l-276.511718-1.992187zm0 0" fill="#546e7a" fill-rule="evenodd"/><path d="m372.46875 105.648438v-24.910157l-10.800781 2.515625-36.421875 8.519532-59.75 13.964843c-12.882813 3.191407-19.964844 4.773438-27.023438 4.773438-7.054687 0-14.109375-1.582031-27.019531-4.773438l-115.492187-26.992187v22.777344l120.089843 28.042968c12.878907 3.191406 19.964844 4.800782 27.019531 4.800782 7.058594 0 14.113282-1.609376 27.023438-4.800782l41.921875-9.777344c18.269531-4.273437 15.78125 16.335938 15.78125 34.601563v4.15625h44.675781c-.003906-17.621094-.003906-35.273437-.003906-52.898437zm0 0" fill="#37474f" fill-rule="evenodd"/><path d="m238.476562 0c-7.058593 0-14.113281 1.582031-27.023437 4.773438l-157.09375 36.707031c-8.664063 2.019531-12.121094 7.933593-11.710937 13.789062-.410157 5.824219 3.046874 11.738281 11.710937 13.757813l157.09375 36.710937c12.910156 3.191407 19.964844 4.769531 27.023437 4.769531 7.054688 0 14.140626-1.578124 27.019532-4.769531l157.09375-36.710937c8.664062-2.019532 12.121094-7.933594 11.710937-13.757813.410157-5.855469-3.046875-11.769531-11.710937-13.789062l-157.09375-36.707031c-12.882813-3.191407-19.964844-4.773438-27.019532-4.773438zm0 0" fill="#7c8c94" fill-rule="evenodd"/><path d="m294.363281 11.535156c22.6875 14.460938 36.710938 34.335938 36.710938 56.234375 0 2.109375-.144531 4.15625-.382813 6.207031-.757812 6.144532-2.605468 12.117188-5.445312 17.796876l36.421875-8.519532 60.949219-14.226562c.734374-.175782 1.464843-.378906 2.136718-.613282 7.085938-2.429687 9.925782-7.816406 9.546875-13.144531.410157-5.855469-3.046875-11.769531-11.683593-13.789062zm0 0" fill="#546e7a" fill-rule="evenodd"/><path d="m103.253906 458.894531v53.105469h-15.585937v-53.105469c0-4.296875 3.496093-7.789062 7.792969-7.789062 4.308593 0 7.792968 3.492187 7.792968 7.789062zm0 0" fill="#35505c"/><path d="m377.542969 457.113281v54.886719h-15.585938v-54.886719c0-4.308593 3.484375-7.789062 7.792969-7.789062 4.296875 0 7.792969 3.480469 7.792969 7.789062zm0 0" fill="#35505c"/></svg>